<?xml version="1.0" encoding="utf-8"?>
<!-- Generator: Adobe Illustrator 25.1.0, SVG Export Plug-In . SVG Version: 6.00 Build 0)  -->
<svg version="1.1" id="Livello_1" xmlns="http://www.w3.org/2000/svg" xmlns:xlink="http://www.w3.org/1999/xlink" x="0px" y="0px"
	 viewBox="0 0 12 12" style="enable-background:new 0 0 12 12;" xml:space="preserve">
<style type="text/css">
	.st0{fill:#FFFFFF;}
</style>
<path class="st0" d="M8.7,5.4L7.6,4.3C7.4,4.2,7.4,4,7.5,3.8C7.6,3.2,7.7,2.6,7.7,2c0-0.3,0.2-0.5,0.5-0.5H10c0.3,0,0.5,0.2,0.5,0.5
	c0,4.7-3.8,8.5-8.5,8.5c-0.3,0-0.5-0.2-0.5-0.5V8.3C1.5,8,1.7,7.8,2,7.8c0.6,0,1.2-0.1,1.8-0.3c0.2-0.1,0.4,0,0.5,0.1l1.1,1.1
	C6.8,8,8,6.8,8.7,5.4z"/>
</svg>
