<svg width="52" height="52" viewBox="0 0 52 52" fill="none" xmlns="http://www.w3.org/2000/svg">
<path d="M25.5 37C30.1944 37 34 33.1944 34 28.5C34 23.8056 30.1944 20 25.5 20C20.8056 20 17 23.8056 17 28.5C17 33.1944 20.8056 37 25.5 37Z" fill="white"/>
<path fill-rule="evenodd" clip-rule="evenodd" d="M0 10C0 4.47715 4.47715 0 10 0H42C47.5228 0 52 4.47715 52 10V42C52 47.5228 47.5228 52 42 52H10C4.47715 52 0 47.5228 0 42V10ZM25.5 42C32.9558 42 39 35.9558 39 28.5C39 21.0442 32.9558 15 25.5 15C18.0442 15 12 21.0442 12 28.5C12 35.9558 18.0442 42 25.5 42ZM38.5 16C40.433 16 42 14.433 42 12.5C42 10.567 40.433 9 38.5 9C36.567 9 35 10.567 35 12.5C35 14.433 36.567 16 38.5 16Z" fill="white"/>
</svg>
